<svg xmlns="http://www.w3.org/2000/svg" x="0px" y="0px"
width="130" height="130"
viewBox="0 0 172 172"
style=" fill:#000000;"><defs><linearGradient x1="126.3125" y1="67.87281" x2="126.3125" y2="80.22456" gradientUnits="userSpaceOnUse" id="color-1_5ZDqqbvHOkKs_gr1"><stop offset="0" stop-color="#efaaaa"></stop><stop offset="1" stop-color="#916c8e"></stop></linearGradient><linearGradient x1="75.25" y1="78.12294" x2="75.25" y2="90.91006" gradientUnits="userSpaceOnUse" id="color-2_5ZDqqbvHOkKs_gr2"><stop offset="0" stop-color="#efaaaa"></stop><stop offset="1" stop-color="#916c8e"></stop></linearGradient><linearGradient x1="86" y1="20.18581" x2="86" y2="140.27138" gradientUnits="userSpaceOnUse" id="color-3_5ZDqqbvHOkKs_gr3"><stop offset="0" stop-color="#dd4c4c"></stop><stop offset="1" stop-color="#513c4f"></stop></linearGradient><linearGradient x1="86" y1="20.18581" x2="86" y2="140.27138" gradientUnits="userSpaceOnUse" id="color-4_5ZDqqbvHOkKs_gr4"><stop offset="0" stop-color="#dd4c4c"></stop><stop offset="1" stop-color="#513c4f"></stop></linearGradient><linearGradient x1="50.36644" y1="20.18581" x2="50.36644" y2="140.27138" gradientUnits="userSpaceOnUse" id="color-5_5ZDqqbvHOkKs_gr5"><stop offset="0" stop-color="#dd4c4c"></stop><stop offset="1" stop-color="#513c4f"></stop></linearGradient><linearGradient x1="44.99144" y1="20.18581" x2="44.99144" y2="140.27138" gradientUnits="userSpaceOnUse" id="color-6_5ZDqqbvHOkKs_gr6"><stop offset="0" stop-color="#dd4c4c"></stop><stop offset="1" stop-color="#513c4f"></stop></linearGradient></defs><g fill="none" fill-rule="nonzero" stroke="none" stroke-width="1" stroke-linecap="butt" stroke-linejoin="miter" stroke-miterlimit="10" stroke-dasharray="" stroke-dashoffset="0" font-family="none" font-weight="none" font-size="none" text-anchor="none" style="mix-blend-mode: normal"><path d="M0,172v-172h172v172z" fill="none"></path><g id="Layer_1"><circle cx="47" cy="28" transform="scale(2.6875,2.6875)" r="3" fill="url(#color-1_5ZDqqbvHOkKs_gr1)"></circle><circle cx="28" cy="32" transform="scale(2.6875,2.6875)" r="3" fill="url(#color-2_5ZDqqbvHOkKs_gr2)"></circle><path d="M142.4375,24.1875h-112.875c-4.56875,0 -8.0625,3.49375 -8.0625,8.0625v107.5c0,4.56875 3.49375,8.0625 8.0625,8.0625h112.875c4.56875,0 8.0625,-3.49375 8.0625,-8.0625v-107.5c0,-4.56875 -3.49375,-8.0625 -8.0625,-8.0625zM76.325,29.5625l8.0625,16.125h-12.9l-8.0625,-16.125zM26.875,32.25c0,-1.6125 1.075,-2.6875 2.6875,-2.6875h27.95l8.0625,16.125h-38.7zM145.125,139.75c0,1.6125 -1.075,2.6875 -2.6875,2.6875h-112.875c-1.6125,0 -2.6875,-1.075 -2.6875,-2.6875v-3.225c0.80625,0.26875 1.6125,0.5375 2.6875,0.5375h112.875c1.075,0 1.88125,-0.26875 2.6875,-0.5375zM145.125,129c0,1.6125 -1.075,2.6875 -2.6875,2.6875h-112.875c-1.6125,0 -2.6875,-1.075 -2.6875,-2.6875v-77.9375h118.25zM145.125,45.6875h-54.825l-8.0625,-16.125h60.2c1.6125,0 2.6875,1.075 2.6875,2.6875z" fill="url(#color-3_5ZDqqbvHOkKs_gr3)"></path><path d="M45.6875,120.9375c5.9125,0 10.75,-4.8375 10.75,-10.75c0,-1.88125 -0.5375,-3.49375 -1.075,-4.8375l13.70625,-10.75c1.88125,1.34375 4.03125,2.15 6.45,2.15c2.15,0 4.3,-0.5375 5.9125,-1.88125l11.55625,10.2125c-1.075,1.6125 -1.6125,3.225 -1.6125,5.10625c0,5.9125 4.8375,10.75 10.75,10.75c5.9125,0 10.75,-4.8375 10.75,-10.75c0,-2.6875 -1.075,-4.8375 -2.41875,-6.71875l12.9,-17.7375c1.075,0.26875 1.88125,0.5375 2.95625,0.5375c5.9125,0 10.75,-4.8375 10.75,-10.75c0,-5.9125 -4.8375,-10.75 -10.75,-10.75c-5.9125,0 -10.75,4.8375 -10.75,10.75c0,2.95625 1.075,5.64375 3.225,7.525l-12.63125,17.46875c-1.34375,-0.80625 -2.6875,-1.075 -4.03125,-1.075c-2.15,0 -4.3,0.5375 -5.9125,1.88125l-11.55625,-10.2125c0.80625,-1.6125 1.34375,-3.225 1.34375,-4.8375c0,-5.9125 -4.8375,-10.75 -10.75,-10.75c-5.9125,0 -10.75,4.8375 -10.75,10.75c0,1.6125 0.26875,2.95625 1.075,4.56875l-13.70625,10.75c-1.88125,-1.34375 -4.03125,-2.15 -6.18125,-2.15c-5.9125,0 -10.75,4.8375 -10.75,10.75c0,5.9125 4.8375,10.75 10.75,10.75zM126.3125,69.875c2.95625,0 5.375,2.41875 5.375,5.375c0,2.95625 -2.41875,5.375 -5.375,5.375c-2.95625,0 -5.375,-2.41875 -5.375,-5.375c0,-2.95625 2.41875,-5.375 5.375,-5.375zM102.125,104.8125c2.95625,0 5.375,2.41875 5.375,5.375c0,2.95625 -2.41875,5.375 -5.375,5.375c-2.95625,0 -5.375,-2.41875 -5.375,-5.375c0,-2.95625 2.41875,-5.375 5.375,-5.375zM75.25,80.625c2.95625,0 5.375,2.41875 5.375,5.375c0,2.95625 -2.41875,5.375 -5.375,5.375c-2.95625,0 -5.375,-2.41875 -5.375,-5.375c0,-2.95625 2.41875,-5.375 5.375,-5.375zM45.6875,104.8125c2.95625,0 5.375,2.41875 5.375,5.375c0,2.95625 -2.41875,5.375 -5.375,5.375c-2.95625,0 -5.375,-2.41875 -5.375,-5.375c0,-2.95625 2.41875,-5.375 5.375,-5.375z" fill="url(#color-4_5ZDqqbvHOkKs_gr4)"></path><rect x="13.5" y="22" transform="scale(2.6875,2.6875)" width="10.6" height="2" fill="url(#color-5_5ZDqqbvHOkKs_gr5)"></rect><rect x="13.5" y="26" transform="scale(2.6875,2.6875)" width="6.6" height="2" fill="url(#color-6_5ZDqqbvHOkKs_gr6)"></rect></g></g></svg>